<?xml version="1.0" encoding="iso-8859-1"?>
<!-- Generator: Adobe Illustrator 19.0.0, SVG Export Plug-In . SVG Version: 6.00 Build 0)  -->
<svg version="1.1" id="Layer_1" xmlns="http://www.w3.org/2000/svg" xmlns:xlink="http://www.w3.org/1999/xlink" x="0px" y="0px"
	 viewBox="0 0 472.615 472.615" style="enable-background:new 0 0 472.615 472.615;" xml:space="preserve">
<g>
	<g>
		<path d="M445.24,0H27.376C12.256,0,0,12.256,0,27.377V445.24c0,15.12,12.256,27.375,27.376,27.375H445.24
			c15.119,0,27.375-12.256,27.375-27.375V27.377C472.615,12.256,460.359,0,445.24,0z M111.657,410.24
			c-27.218,0-49.281-22.062-49.281-49.279c0-27.219,22.063-49.284,49.281-49.284c27.217,0,49.28,22.065,49.28,49.284
			C160.937,388.178,138.874,410.24,111.657,410.24z M111.657,160.937c-27.218,0-49.281-22.063-49.281-49.279
			c0-27.217,22.063-49.281,49.281-49.281c27.217,0,49.28,22.064,49.28,49.281C160.937,138.874,138.874,160.937,111.657,160.937z
			 M236.308,285.591c-27.217,0-49.28-22.064-49.28-49.283c0-27.217,22.063-49.279,49.28-49.279
			c27.218,0,49.281,22.062,49.281,49.279C285.589,263.526,263.525,285.591,236.308,285.591z M360.959,410.24
			c-27.217,0-49.281-22.062-49.281-49.279c0-27.219,22.064-49.284,49.281-49.284c27.217,0,49.281,22.065,49.281,49.284
			C410.24,388.178,388.176,410.24,360.959,410.24z M360.959,160.937c-27.217,0-49.281-22.063-49.281-49.279
			c0-27.217,22.064-49.281,49.281-49.281c27.217,0,49.281,22.064,49.281,49.281C410.24,138.874,388.176,160.937,360.959,160.937z"/>
	</g>
</g>
<g>
</g>
<g>
</g>
<g>
</g>
<g>
</g>
<g>
</g>
<g>
</g>
<g>
</g>
<g>
</g>
<g>
</g>
<g>
</g>
<g>
</g>
<g>
</g>
<g>
</g>
<g>
</g>
<g>
</g>
</svg>
